<svg xmlns="http://www.w3.org/2000/svg" viewBox="0 0 900 580" width="900" height="580">
  <defs>
    <!-- Background Gradients -->
    <linearGradient id="bgGrad" x1="0%" y1="0%" x2="100%" y2="100%">
      <stop offset="0%" stop-color="#060812"/>
      <stop offset="45%" stop-color="#0b1022"/>
      <stop offset="100%" stop-color="#140a22"/>
    </linearGradient>

    <linearGradient id="borderGrad" x1="0%" y1="0%" x2="100%" y2="100%">
      <stop offset="0%" stop-color="#00f5ff"/>
      <stop offset="50%" stop-color="#7b2ff7"/>
      <stop offset="100%" stop-color="#ff00e5"/>
    </linearGradient>

    <linearGradient id="headerGrad" x1="0%" y1="0%" x2="100%" y2="0%">
      <stop offset="0%" stop-color="#00f5ff" stop-opacity="0.18"/>
      <stop offset="50%" stop-color="#7b2ff7" stop-opacity="0.12"/>
      <stop offset="100%" stop-color="#ff00e5" stop-opacity="0.18"/>
    </linearGradient>

    <!-- Metallic Chip Gradients -->
    <linearGradient id="chipMetalGrad" x1="0%" y1="0%" x2="0%" y2="100%">
      <stop offset="0%" stop-color="#242c44"/>
      <stop offset="12%" stop-color="#181e30"/>
      <stop offset="60%" stop-color="#0e1220"/>
      <stop offset="90%" stop-color="#141828"/>
      <stop offset="100%" stop-color="#1a2034"/>
    </linearGradient>

    <linearGradient id="chipBevelHighlight" x1="0%" y1="0%" x2="0%" y2="100%">
      <stop offset="0%" stop-color="#ffffff" stop-opacity="0.38"/>
      <stop offset="20%" stop-color="#ffffff" stop-opacity="0.08"/>
      <stop offset="100%" stop-color="#000000" stop-opacity="0.45"/>
    </linearGradient>

    <!-- 3D Hardware Rail Gradient -->
    <linearGradient id="railChassisGrad" x1="0%" y1="0%" x2="0%" y2="100%">
      <stop offset="0%" stop-color="#384566"/>
      <stop offset="10%" stop-color="#55668e"/>
      <stop offset="22%" stop-color="#7287b5"/>
      <stop offset="35%" stop-color="#3e4c70"/>
      <stop offset="65%" stop-color="#20273a"/>
      <stop offset="85%" stop-color="#323f5c"/>
      <stop offset="100%" stop-color="#131826"/>
    </linearGradient>

    <linearGradient id="railSlotGrad" x1="0%" y1="0%" x2="0%" y2="100%">
      <stop offset="0%" stop-color="#05070e"/>
      <stop offset="50%" stop-color="#0a0e1a"/>
      <stop offset="100%" stop-color="#14192b"/>
    </linearGradient>

    <linearGradient id="neonGlowRail" x1="0%" y1="0%" x2="100%" y2="0%">
      <stop offset="0%" stop-color="#00f5ff" stop-opacity="0.4"/>
      <stop offset="50%" stop-color="#7b2ff7" stop-opacity="0.5"/>
      <stop offset="100%" stop-color="#ff00e5" stop-opacity="0.4"/>
    </linearGradient>

    <!-- Metal Bolt Radial Gradient -->
    <radialGradient id="boltGrad" cx="35%" cy="35%" r="65%">
      <stop offset="0%" stop-color="#cbd5e1"/>
      <stop offset="50%" stop-color="#475569"/>
      <stop offset="100%" stop-color="#0f172a"/>
    </radialGradient>

    <!-- Filter Glows -->
    <filter id="glowCyan" x="-20%" y="-20%" width="140%" height="140%">
      <feGaussianBlur stdDeviation="2.5" result="coloredBlur"/>
      <feMerge>
        <feMergeNode in="coloredBlur"/>
        <feMergeNode in="SourceGraphic"/>
      </feMerge>
    </filter>

    <filter id="glowPink" x="-20%" y="-20%" width="140%" height="140%">
      <feGaussianBlur stdDeviation="2.5" result="coloredBlur"/>
      <feMerge>
        <feMergeNode in="coloredBlur"/>
        <feMergeNode in="SourceGraphic"/>
      </feMerge>
    </filter>

    <filter id="dropShadow" x="-10%" y="-10%" width="120%" height="130%">
      <feDropShadow dx="0" dy="4" stdDeviation="4" flood-color="#000000" flood-opacity="0.85"/>
    </filter>

    <style>
      .mono-text { font-family: 'Fira Code', 'Courier New', Consolas, monospace; }
      .sans-text { font-family: system-ui, -apple-system, 'Segoe UI', Roboto, Helvetica, Arial, sans-serif; }

      .pulse-led-green { animation: pulseGreen 2s ease-in-out infinite; }
      @keyframes pulseGreen {
        0%, 100% { fill: #00ff88; filter: drop-shadow(0 0 2px #00ff88); }
        50% { fill: #a3ffce; filter: drop-shadow(0 0 6px #00ff88); }
      }

      .pulse-led-cyan { animation: pulseCyan 2.2s ease-in-out infinite; }
      @keyframes pulseCyan {
        0%, 100% { fill: #00f5ff; filter: drop-shadow(0 0 2px #00f5ff); }
        50% { fill: #b8fbff; filter: drop-shadow(0 0 6px #00f5ff); }
      }

      .pulse-led-pink { animation: pulsePink 2.4s ease-in-out infinite; }
      @keyframes pulsePink {
        0%, 100% { fill: #ff00e5; filter: drop-shadow(0 0 2px #ff00e5); }
        50% { fill: #ffb8f7; filter: drop-shadow(0 0 6px #ff00e5); }
      }

      .pulse-led-amber { animation: pulseAmber 1.8s ease-in-out infinite; }
      @keyframes pulseAmber {
        0%, 100% { fill: #ffb800; filter: drop-shadow(0 0 2px #ffb800); }
        50% { fill: #ffe499; filter: drop-shadow(0 0 6px #ffb800); }
      }

      .flow-trace {
        stroke-dasharray: 8 16;
        animation: flowDash 3s linear infinite;
      }
      @keyframes flowDash {
        to { stroke-dashoffset: -48; }
      }

      .chip-hover {
        transition: transform 0.25s ease, filter 0.25s ease;
      }
      .chip-hover:hover {
        transform: translateY(-2px);
      }

      .rail-shimmer {
        animation: railGlow 3.5s ease-in-out infinite alternate;
      }
      @keyframes railGlow {
        0% { opacity: 0.35; }
        100% { opacity: 0.8; }
      }
    </style>
  </defs>

  <!-- ==================== BASE PCB BOARD ==================== -->
  <rect width="900" height="580" fill="url(#bgGrad)" rx="16"/>

  <!-- Subtle Cyberpunk Map Grid -->
  <g opacity="0.045" stroke="#00f5ff" stroke-width="0.75">
    <line x1="0" y1="40" x2="900" y2="40"/><line x1="0" y1="80" x2="900" y2="80"/>
    <line x1="0" y1="120" x2="900" y2="120"/><line x1="0" y1="160" x2="900" y2="160"/>
    <line x1="0" y1="200" x2="900" y2="200"/><line x1="0" y1="240" x2="900" y2="240"/>
    <line x1="0" y1="280" x2="900" y2="280"/><line x1="0" y1="320" x2="900" y2="320"/>
    <line x1="0" y1="360" x2="900" y2="360"/><line x1="0" y1="400" x2="900" y2="400"/>
    <line x1="0" y1="440" x2="900" y2="440"/><line x1="0" y1="480" x2="900" y2="480"/>
    <line x1="0" y1="520" x2="900" y2="520"/><line x1="0" y1="560" x2="900" y2="560"/>

    <line x1="45" y1="0" x2="45" y2="580"/><line x1="90" y1="0" x2="90" y2="580"/>
    <line x1="135" y1="0" x2="135" y2="580"/><line x1="180" y1="0" x2="180" y2="580"/>
    <line x1="225" y1="0" x2="225" y2="580"/><line x1="270" y1="0" x2="270" y2="580"/>
    <line x1="315" y1="0" x2="315" y2="580"/><line x1="360" y1="0" x2="360" y2="580"/>
    <line x1="405" y1="0" x2="405" y2="580"/><line x1="450" y1="0" x2="450" y2="580"/>
    <line x1="495" y1="0" x2="495" y2="580"/><line x1="540" y1="0" x2="540" y2="580"/>
    <line x1="585" y1="0" x2="585" y2="580"/><line x1="630" y1="0" x2="630" y2="580"/>
    <line x1="675" y1="0" x2="675" y2="580"/><line x1="720" y1="0" x2="720" y2="580"/>
    <line x1="765" y1="0" x2="765" y2="580"/><line x1="810" y1="0" x2="810" y2="580"/>
    <line x1="855" y1="0" x2="855" y2="580"/>
  </g>

  <!-- Dot Matrix Map Markers -->
  <g opacity="0.12" fill="#00f5ff">
    <circle cx="90" cy="80" r="1.5"/><circle cx="180" cy="80" r="1.5"/><circle cx="270" cy="80" r="1.5"/>
    <circle cx="630" cy="80" r="1.5"/><circle cx="720" cy="80" r="1.5"/><circle cx="810" cy="80" r="1.5"/>
    <circle cx="90" cy="200" r="1.5"/><circle cx="810" cy="200" r="1.5"/>
    <circle cx="90" cy="360" r="1.5"/><circle cx="810" cy="360" r="1.5"/>
    <circle cx="90" cy="480" r="1.5"/><circle cx="180" cy="480" r="1.5"/><circle cx="720" cy="480" r="1.5"/><circle cx="810" cy="480" r="1.5"/>
  </g>

  <!-- Motherboard Circuit Traces & Solder Vias (Background Copper/Neon Layer) -->
  <g opacity="0.22">
    <!-- Top Bus Lines -->
    <path d="M 28 45 L 90 45 L 110 65 L 200 65" fill="none" stroke="#00f5ff" stroke-width="1.2"/>
    <circle cx="28" cy="45" r="2.5" fill="#060812" stroke="#00f5ff" stroke-width="1.2"/>
    <circle cx="200" cy="65" r="2" fill="#00f5ff"/>

    <!-- Left Flank PCB Circuit -->
    <path d="M 18 100 L 18 160 L 26 168 L 26 210 L 20 216 L 20 330 L 26 336 L 26 420 L 18 428 L 18 520" fill="none" stroke="#7b2ff7" stroke-width="1"/>
    <circle cx="18" cy="100" r="2" fill="#7b2ff7"/>
    <circle cx="26" cy="210" r="2" fill="#7b2ff7"/>
    <circle cx="18" cy="520" r="2" fill="#7b2ff7"/>

    <!-- Right Flank PCB Circuit -->
    <path d="M 882 100 L 882 170 L 874 178 L 874 250 L 880 256 L 880 370 L 874 376 L 874 460 L 882 468 L 882 520" fill="none" stroke="#00f5ff" stroke-width="1"/>
    <circle cx="882" cy="100" r="2" fill="#00f5ff"/>
    <circle cx="874" cy="250" r="2" fill="#00f5ff"/>
    <circle cx="882" cy="520" r="2" fill="#00f5ff"/>

    <!-- Horizontal Bus Connectors with Flow Dash -->
    <path d="M 100 205 L 800 205" fill="none" stroke="#00f5ff" stroke-width="0.8" opacity="0.4"/>
    <path d="M 100 205 L 800 205" fill="none" stroke="#00f5ff" stroke-width="1.2" class="flow-trace" opacity="0.6"/>

    <path d="M 100 335 L 800 335" fill="none" stroke="#ff00e5" stroke-width="0.8" opacity="0.4"/>
    <path d="M 100 335 L 800 335" fill="none" stroke="#ff00e5" stroke-width="1.2" class="flow-trace" opacity="0.6"/>
  </g>

  <!-- Outer Neon Enclosure Border with Corner Brackets -->
  <rect x="3" y="3" width="894" height="574" rx="16" fill="none" stroke="url(#borderGrad)" stroke-width="2"/>
  
  <!-- Corner Tech HUD Accents -->
  <path d="M 12 28 L 12 12 L 28 12" fill="none" stroke="#00f5ff" stroke-width="2.5"/>
  <path d="M 888 28 L 888 12 L 872 12" fill="none" stroke="#00f5ff" stroke-width="2.5"/>
  <path d="M 12 552 L 12 568 L 28 568" fill="none" stroke="#ff00e5" stroke-width="2.5"/>
  <path d="M 888 552 L 888 568 L 872 568" fill="none" stroke="#ff00e5" stroke-width="2.5"/>

  <!-- ==================== HEADER BAR ==================== -->
  <g id="header-block">
    <rect x="14" y="14" width="872" height="52" rx="10" fill="url(#headerGrad)"/>
    <rect x="14" y="14" width="872" height="52" rx="10" fill="none" stroke="#00f5ff" stroke-width="0.75" stroke-opacity="0.35"/>

    <!-- Mac-style Cyberpunk Terminal Status Dots -->
    <circle cx="36" cy="40" r="5" fill="#ff5f57" opacity="0.85"/>
    <circle cx="54" cy="40" r="5" fill="#febc2e" opacity="0.85"/>
    <circle cx="72" cy="40" r="5" fill="#28c840" opacity="0.85"/>

    <!-- Hardware CPU Icon -->
    <g transform="translate(100, 28)">
      <rect x="0" y="0" width="24" height="24" rx="4" fill="#090d1a" stroke="#00f5ff" stroke-width="1.2"/>
      <rect x="5" y="5" width="14" height="14" rx="2" fill="#00f5ff" fill-opacity="0.2"/>
      <circle cx="12" cy="12" r="3" fill="#00f5ff"/>
      <line x1="6" y1="-2" x2="6" y2="0" stroke="#00f5ff" stroke-width="1.2"/>
      <line x1="12" y1="-2" x2="12" y2="0" stroke="#00f5ff" stroke-width="1.2"/>
      <line x1="18" y1="-2" x2="18" y2="0" stroke="#00f5ff" stroke-width="1.2"/>
      <line x1="6" y1="24" x2="6" y2="26" stroke="#00f5ff" stroke-width="1.2"/>
      <line x1="12" y1="24" x2="12" y2="26" stroke="#00f5ff" stroke-width="1.2"/>
      <line x1="18" y1="24" x2="18" y2="26" stroke="#00f5ff" stroke-width="1.2"/>
      <line x1="-2" y1="6" x2="0" y2="6" stroke="#00f5ff" stroke-width="1.2"/>
      <line x1="-2" y1="12" x2="0" y2="12" stroke="#00f5ff" stroke-width="1.2"/>
      <line x1="-2" y1="18" x2="0" y2="18" stroke="#00f5ff" stroke-width="1.2"/>
      <line x1="24" y1="6" x2="26" y2="6" stroke="#00f5ff" stroke-width="1.2"/>
      <line x1="24" y1="12" x2="26" y2="12" stroke="#00f5ff" stroke-width="1.2"/>
      <line x1="24" y1="18" x2="26" y2="18" stroke="#00f5ff" stroke-width="1.2"/>
    </g>

    <!-- Main Title & System Breadcrumb -->
    <text x="136" y="38" class="sans-text" font-size="16" font-weight="900" fill="#ffffff" letter-spacing="1.5">TECH ARSENAL</text>
    <text x="272" y="38" class="mono-text" font-size="12" font-weight="600" fill="#00f5ff" filter="url(#glowCyan)">// HARDWARE MATRIX v2.6</text>
    <text x="136" y="54" class="mono-text" font-size="9" fill="#94a3b8" letter-spacing="1">ROOTSEC26 ARCHITECTURE // SILICON REVISION: 4.80 GHz // ASSIUT NODE</text>

    <!-- Status Badge -->
    <rect x="710" y="27" width="162" height="26" rx="13" fill="#0a1220" stroke="#00ff88" stroke-width="1" stroke-opacity="0.6"/>
    <circle cx="726" cy="40" r="4" class="pulse-led-green"/>
    <text x="738" y="44" class="mono-text" font-size="10" font-weight="700" fill="#00ff88" letter-spacing="0.8">ONLINE // 18 CHIPS</text>
  </g>


  <!-- ==================== ROW 1: LANGUAGES (6 CHIPS) ==================== -->
  <g id="category-languages">
    <rect x="14" y="78" width="872" height="118" rx="10" fill="#080b18" fill-opacity="0.8"/>
    <rect x="14" y="78" width="872" height="118" rx="10" fill="none" stroke="#00f5ff" stroke-width="0.8" stroke-opacity="0.25"/>

    <!-- Section Header Strip -->
    <path d="M 14 88 L 22 78 L 260 78 L 270 88 L 270 102 L 14 102 Z" fill="#00f5ff" fill-opacity="0.08"/>
    <rect x="24" y="86" width="4" height="12" rx="2" fill="#00f5ff"/>
    <text x="36" y="96" class="mono-text" font-size="11" font-weight="800" fill="#00f5ff" letter-spacing="1.2">BUS 01 // LANGUAGES</text>
    <text x="195" y="96" class="mono-text" font-size="9" fill="#64748b">[6 CORES]</text>
    <text x="815" y="96" class="mono-text" font-size="9" fill="#00ff88">STATUS: ACTIVE</text>
    <circle cx="805" cy="93" r="3" class="pulse-led-green"/>

    <!-- Circuit Solder Tracks Under Chips -->
    <g opacity="0.3" stroke="#00f5ff" stroke-width="1">
      <line x1="90" y1="172" x2="90" y2="182"/>
      <line x1="230" y1="172" x2="230" y2="182"/>
      <line x1="370" y1="172" x2="370" y2="182"/>
      <line x1="510" y1="172" x2="510" y2="182"/>
      <line x1="650" y1="172" x2="650" y2="182"/>
      <line x1="790" y1="172" x2="790" y2="182"/>
    </g>

    <!-- 1. PYTHON -->
    <g class="chip-hover" transform="translate(25, 114)" filter="url(#dropShadow)">
      <rect x="0" y="2" width="134" height="52" rx="12" fill="#03050a"/>
      <rect x="0" y="0" width="134" height="50" rx="12" fill="url(#chipMetalGrad)" stroke="#3776ab" stroke-width="1.4"/>
      <rect x="1" y="1" width="132" height="24" rx="11" fill="url(#chipBevelHighlight)"/>
      <circle cx="122" cy="12" r="2.5" class="pulse-led-cyan"/>
      <rect x="10" y="11" width="28" height="28" rx="7" fill="#0a0f1d" stroke="#3776ab" stroke-width="0.8"/>
      <!-- Python Icon -->
      <g transform="translate(14, 15) scale(0.83)">
        <path d="M11.9 0C5.5 0 5.9 2.8 5.9 2.8l.01 2.9h6.1v.9H3.7S0 6.1 0 12.5s3.3 6.1 3.3 6.1h2V15.7s-.1-3.4 3.4-3.4h5.8s3.3.1 3.3-3.2V3.3S18.3 0 11.9 0zm-3.3 1.9c.7 0 1.2.5 1.2 1.2s-.5 1.2-1.2 1.2-1.2-.5-1.2-1.2.5-1.2 1.2-1.2z" fill="#387eb8"/>
        <path d="M12.1 24c6.4 0 6-2.8 6-2.8l-.01-2.9h-6.1v-.9h8.3s3.7.5 3.7-5.9-3.3-6.1-3.3-6.1h-2v2.9s.1 3.4-3.4 3.4H9.5s-3.3-.1-3.3 3.2v5.9s-.5 3.2 5.9 3.2zm3.3-1.9c-.7 0-1.2-.5-1.2-1.2s.5-1.2 1.2-1.2 1.2.5 1.2 1.2-.5 1.2-1.2 1.2z" fill="#ffe873"/>
      </g>
      <text x="46" y="27" class="sans-text" font-size="12" font-weight="700" fill="#ffffff">Python</text>
      <text x="46" y="39" class="mono-text" font-size="8.5" fill="#387eb8">AI / CORE</text>
    </g>

    <!-- 2. TYPESCRIPT -->
    <g class="chip-hover" transform="translate(169, 114)" filter="url(#dropShadow)">
      <rect x="0" y="2" width="134" height="52" rx="12" fill="#03050a"/>
      <rect x="0" y="0" width="134" height="50" rx="12" fill="url(#chipMetalGrad)" stroke="#3178c6" stroke-width="1.4"/>
      <rect x="1" y="1" width="132" height="24" rx="11" fill="url(#chipBevelHighlight)"/>
      <circle cx="122" cy="12" r="2.5" class="pulse-led-cyan"/>
      <rect x="10" y="11" width="28" height="28" rx="7" fill="#0a0f1d" stroke="#3178c6" stroke-width="0.8"/>
      <!-- TypeScript Icon -->
      <g transform="translate(14, 15) scale(0.83)">
        <rect width="24" height="24" rx="4" fill="#3178c6"/>
        <path d="M11.5 17.5h-2.1V10h-2.7V8.2h7.5V10h-2.7v7.5zm4.8.1c-1.3 0-2.3-.4-3-1.2l1.3-1.4c.5.5 1.1.8 1.8.8.7 0 1.2-.3 1.2-.8 0-.4-.3-.7-1.3-1-1.6-.5-2.6-1.1-2.6-2.5 0-1.4 1.1-2.4 2.7-2.4 1.1 0 1.9.3 2.6.9l-1.1 1.5c-.5-.4-1-.6-1.5-.6-.6 0-1 .3-1 .7 0 .4.4.6 1.4 1 1.7.5 2.5 1.2 2.5 2.5-.1 1.4-1.2 2.5-3 2.5z" fill="#ffffff"/>
      </g>
      <text x="46" y="27" class="sans-text" font-size="12" font-weight="700" fill="#ffffff">TypeScript</text>
      <text x="46" y="39" class="mono-text" font-size="8.5" fill="#3178c6">STRICT</text>
    </g>

    <!-- 3. JAVASCRIPT -->
    <g class="chip-hover" transform="translate(313, 114)" filter="url(#dropShadow)">
      <rect x="0" y="2" width="134" height="52" rx="12" fill="#03050a"/>
      <rect x="0" y="0" width="134" height="50" rx="12" fill="url(#chipMetalGrad)" stroke="#f7df1e" stroke-width="1.4"/>
      <rect x="1" y="1" width="132" height="24" rx="11" fill="url(#chipBevelHighlight)"/>
      <circle cx="122" cy="12" r="2.5" class="pulse-led-amber"/>
      <rect x="10" y="11" width="28" height="28" rx="7" fill="#0a0f1d" stroke="#f7df1e" stroke-width="0.8"/>
      <!-- JavaScript Icon -->
      <g transform="translate(14, 15) scale(0.83)">
        <rect width="24" height="24" rx="4" fill="#f7df1e"/>
        <path d="M6.5 18.5l1.8-1.1c.4.7.7 1.2 1.5 1.2.8 0 1.3-.3 1.3-1.5v-7.6h2.2v7.6c0 2.3-1.3 3.3-3.4 3.3-1.9 0-3-1-3.4-1.9zm9.1-.1l1.8-1c.5.8 1.1 1.3 2.2 1.3 1 0 1.6-.5 1.6-1.2 0-.8-.6-1.1-1.9-1.7-1.9-.8-3.1-1.6-3.1-3.5 0-1.7 1.3-3.1 3.4-3.1 1.5 0 2.6.5 3.3 1.8l-1.7 1.1c-.4-.7-.8-.9-1.6-.9-.8 0-1.3.4-1.3 1 0 .7.5 1 1.8 1.5 2.1.9 3.2 1.7 3.2 3.7 0 2.1-1.6 3.3-3.8 3.3-2.1 0-3.4-1-3.9-2.3z" fill="#000000"/>
      </g>
      <text x="46" y="27" class="sans-text" font-size="12" font-weight="700" fill="#ffffff">JavaScript</text>
      <text x="46" y="39" class="mono-text" font-size="8.5" fill="#f7df1e">DYNAMIC</text>
    </g>

    <!-- 4. C++ -->
    <g class="chip-hover" transform="translate(457, 114)" filter="url(#dropShadow)">
      <rect x="0" y="2" width="134" height="52" rx="12" fill="#03050a"/>
      <rect x="0" y="0" width="134" height="50" rx="12" fill="url(#chipMetalGrad)" stroke="#00599c" stroke-width="1.4"/>
      <rect x="1" y="1" width="132" height="24" rx="11" fill="url(#chipBevelHighlight)"/>
      <circle cx="122" cy="12" r="2.5" class="pulse-led-cyan"/>
      <rect x="10" y="11" width="28" height="28" rx="7" fill="#0a0f1d" stroke="#00599c" stroke-width="0.8"/>
      <!-- C++ Icon -->
      <g transform="translate(14, 15) scale(0.83)">
        <polygon points="12,1 22,6.8 22,18.2 12,24 2,18.2 2,6.8" fill="#00599c"/>
        <text x="12" y="16" font-family="Arial, sans-serif" font-size="10" font-weight="bold" fill="#ffffff" text-anchor="middle">C++</text>
      </g>
      <text x="46" y="27" class="sans-text" font-size="12" font-weight="700" fill="#ffffff">C++</text>
      <text x="46" y="39" class="mono-text" font-size="8.5" fill="#659ad2">NATIVE</text>
    </g>

    <!-- 5. HTML5 -->
    <g class="chip-hover" transform="translate(601, 114)" filter="url(#dropShadow)">
      <rect x="0" y="2" width="134" height="52" rx="12" fill="#03050a"/>
      <rect x="0" y="0" width="134" height="50" rx="12" fill="url(#chipMetalGrad)" stroke="#e34f26" stroke-width="1.4"/>
      <rect x="1" y="1" width="132" height="24" rx="11" fill="url(#chipBevelHighlight)"/>
      <circle cx="122" cy="12" r="2.5" class="pulse-led-amber"/>
      <rect x="10" y="11" width="28" height="28" rx="7" fill="#0a0f1d" stroke="#e34f26" stroke-width="0.8"/>
      <!-- HTML5 Shield Icon -->
      <g transform="translate(16, 15) scale(0.85)">
        <polygon points="0,0 18,0 16.5,18 9,20 1.5,18" fill="#e34f26"/>
        <polygon points="9,2 15.5,2 14.3,16.5 9,18" fill="#ef652a"/>
        <path d="M4,4 h10 l-.3,3 h-6.5 l.2,3 h6.1 l-.6,6.2 -3.9,1.1 -3.9-1.1 -.2-2.8 h2.5 l.1,1.4 1.5,.4 1.5-.4 .2-2.3 H4.3 z" fill="#ffffff"/>
      </g>
      <text x="46" y="27" class="sans-text" font-size="12" font-weight="700" fill="#ffffff">HTML5</text>
      <text x="46" y="39" class="mono-text" font-size="8.5" fill="#ef652a">SEMANTIC</text>
    </g>

    <!-- 6. CSS3 -->
    <g class="chip-hover" transform="translate(745, 114)" filter="url(#dropShadow)">
      <rect x="0" y="2" width="134" height="52" rx="12" fill="#03050a"/>
      <rect x="0" y="0" width="134" height="50" rx="12" fill="url(#chipMetalGrad)" stroke="#1572b6" stroke-width="1.4"/>
      <rect x="1" y="1" width="132" height="24" rx="11" fill="url(#chipBevelHighlight)"/>
      <circle cx="122" cy="12" r="2.5" class="pulse-led-cyan"/>
      <rect x="10" y="11" width="28" height="28" rx="7" fill="#0a0f1d" stroke="#1572b6" stroke-width="0.8"/>
      <!-- CSS3 Shield Icon -->
      <g transform="translate(16, 15) scale(0.85)">
        <polygon points="0,0 18,0 16.5,18 9,20 1.5,18" fill="#1572b6"/>
        <polygon points="9,2 15.5,2 14.3,16.5 9,18" fill="#33a9dc"/>
        <path d="M4,4 h10 l-.3,3 h-6.5 l.2,3 h6.1 l-.6,6.2 -3.9,1.1 -3.9-1.1 -.2-2.8 h2.5 l.1,1.4 1.5,.4 1.5-.4 .2-2.3 H4.3 z" fill="#ffffff"/>
      </g>
      <text x="46" y="27" class="sans-text" font-size="12" font-weight="700" fill="#ffffff">CSS3</text>
      <text x="46" y="39" class="mono-text" font-size="8.5" fill="#33a9dc">STYLING</text>
    </g>
  </g>


  <!-- ==================== ROW 2: FRAMEWORKS (5 CHIPS) ==================== -->
  <g id="category-frameworks">
    <rect x="14" y="208" width="872" height="118" rx="10" fill="#080b18" fill-opacity="0.8"/>
    <rect x="14" y="208" width="872" height="118" rx="10" fill="none" stroke="#7b2ff7" stroke-width="0.8" stroke-opacity="0.25"/>

    <!-- Section Header Strip -->
    <path d="M 14 218 L 22 208 L 260 208 L 270 218 L 270 232 L 14 232 Z" fill="#7b2ff7" fill-opacity="0.08"/>
    <rect x="24" y="216" width="4" height="12" rx="2" fill="#7b2ff7"/>
    <text x="36" y="226" class="mono-text" font-size="11" font-weight="800" fill="#7b2ff7" letter-spacing="1.2">BUS 02 // FRAMEWORKS</text>
    <text x="210" y="226" class="mono-text" font-size="9" fill="#64748b">[5 ENGINES]</text>
    <text x="815" y="226" class="mono-text" font-size="9" fill="#00ff88">STATUS: ACTIVE</text>
    <circle cx="805" cy="223" r="3" class="pulse-led-green"/>

    <!-- Circuit Solder Tracks Under Chips -->
    <g opacity="0.3" stroke="#7b2ff7" stroke-width="1">
      <line x1="105" y1="302" x2="105" y2="312"/>
      <line x1="275" y1="302" x2="275" y2="312"/>
      <line x1="445" y1="302" x2="445" y2="312"/>
      <line x1="615" y1="302" x2="615" y2="312"/>
      <line x1="785" y1="302" x2="785" y2="312"/>
    </g>

    <!-- 1. REACT -->
    <g class="chip-hover" transform="translate(25, 244)" filter="url(#dropShadow)">
      <rect x="0" y="2" width="162" height="52" rx="12" fill="#03050a"/>
      <rect x="0" y="0" width="162" height="50" rx="12" fill="url(#chipMetalGrad)" stroke="#61dafb" stroke-width="1.4"/>
      <rect x="1" y="1" width="160" height="24" rx="11" fill="url(#chipBevelHighlight)"/>
      <circle cx="150" cy="12" r="2.5" class="pulse-led-cyan"/>
      <rect x="10" y="11" width="28" height="28" rx="7" fill="#0a0f1d" stroke="#61dafb" stroke-width="0.8"/>
      <!-- React Atom Icon -->
      <g transform="translate(24, 25)">
        <ellipse rx="9" ry="3.5" fill="none" stroke="#61dafb" stroke-width="1.2"/>
        <ellipse rx="9" ry="3.5" transform="rotate(60)" fill="none" stroke="#61dafb" stroke-width="1.2"/>
        <ellipse rx="9" ry="3.5" transform="rotate(120)" fill="none" stroke="#61dafb" stroke-width="1.2"/>
        <circle r="1.8" fill="#61dafb"/>
      </g>
      <text x="46" y="27" class="sans-text" font-size="12.5" font-weight="700" fill="#ffffff">React</text>
      <text x="46" y="39" class="mono-text" font-size="8.5" fill="#61dafb">REACTIVE UI</text>
    </g>

    <!-- 2. NEXT.JS -->
    <g class="chip-hover" transform="translate(199, 244)" filter="url(#dropShadow)">
      <rect x="0" y="2" width="162" height="52" rx="12" fill="#03050a"/>
      <rect x="0" y="0" width="162" height="50" rx="12" fill="url(#chipMetalGrad)" stroke="#ffffff" stroke-width="1.2"/>
      <rect x="1" y="1" width="160" height="24" rx="11" fill="url(#chipBevelHighlight)"/>
      <circle cx="150" cy="12" r="2.5" class="pulse-led-green"/>
      <rect x="10" y="11" width="28" height="28" rx="7" fill="#0a0f1d" stroke="#ffffff" stroke-width="0.8"/>
      <!-- Next.js Icon -->
      <g transform="translate(14, 15) scale(0.83)">
        <circle cx="12" cy="12" r="11" fill="#000000" stroke="#333333" stroke-width="0.8"/>
        <path d="M16 17 L9 8 H7.5 V16 H9 V10.5 L15 17.5 Z" fill="#ffffff"/>
        <line x1="15" y1="8" x2="16.5" y2="8" stroke="#ffffff" stroke-width="1.5"/>
        <line x1="15" y1="8" x2="15" y2="13.5" stroke="#ffffff" stroke-width="1.5"/>
      </g>
      <text x="46" y="27" class="sans-text" font-size="12.5" font-weight="700" fill="#ffffff">Next.js</text>
      <text x="46" y="39" class="mono-text" font-size="8.5" fill="#cbd5e1">FULL-STACK</text>
    </g>

    <!-- 3. TAILWIND CSS -->
    <g class="chip-hover" transform="translate(373, 244)" filter="url(#dropShadow)">
      <rect x="0" y="2" width="162" height="52" rx="12" fill="#03050a"/>
      <rect x="0" y="0" width="162" height="50" rx="12" fill="url(#chipMetalGrad)" stroke="#38bdf8" stroke-width="1.4"/>
      <rect x="1" y="1" width="160" height="24" rx="11" fill="url(#chipBevelHighlight)"/>
      <circle cx="150" cy="12" r="2.5" class="pulse-led-cyan"/>
      <rect x="10" y="11" width="28" height="28" rx="7" fill="#0a0f1d" stroke="#38bdf8" stroke-width="0.8"/>
      <!-- Tailwind Waves Icon -->
      <g transform="translate(14, 15) scale(0.83)">
        <path d="M6 12c.5-1.5 1.5-2.5 3-3 2.5-.5 3.5 1 5 1.5s2.5 0 4-1.5c-.5 1.5-1.5 2.5-3 3-2.5.5-3.5-1-5-1.5s-2.5 0-4 1.5zm-4 5c.5-1.5 1.5-2.5 3-3 2.5-.5 3.5 1 5 1.5s2.5 0 4-1.5c-.5 1.5-1.5 2.5-3 3-2.5.5-3.5-1-5-1.5s-2.5 0-4 1.5z" fill="#38bdf8"/>
      </g>
      <text x="46" y="27" class="sans-text" font-size="12" font-weight="700" fill="#ffffff">Tailwind CSS</text>
      <text x="46" y="39" class="mono-text" font-size="8.5" fill="#38bdf8">UTILITY SYS</text>
    </g>

    <!-- 4. FASTAPI -->
    <g class="chip-hover" transform="translate(547, 244)" filter="url(#dropShadow)">
      <rect x="0" y="2" width="162" height="52" rx="12" fill="#03050a"/>
      <rect x="0" y="0" width="162" height="50" rx="12" fill="url(#chipMetalGrad)" stroke="#009688" stroke-width="1.4"/>
      <rect x="1" y="1" width="160" height="24" rx="11" fill="url(#chipBevelHighlight)"/>
      <circle cx="150" cy="12" r="2.5" class="pulse-led-green"/>
      <rect x="10" y="11" width="28" height="28" rx="7" fill="#0a0f1d" stroke="#009688" stroke-width="0.8"/>
      <!-- FastAPI Icon -->
      <g transform="translate(14, 15) scale(0.83)">
        <circle cx="12" cy="12" r="11" fill="#009688"/>
        <polygon points="13,3 6,13 11.5,13 10,21 18,10 12.5,10" fill="#ffffff"/>
      </g>
      <text x="46" y="27" class="sans-text" font-size="12.5" font-weight="700" fill="#ffffff">FastAPI</text>
      <text x="46" y="39" class="mono-text" font-size="8.5" fill="#009688">ASYNC API</text>
    </g>

    <!-- 5. NODE.JS -->
    <g class="chip-hover" transform="translate(721, 244)" filter="url(#dropShadow)">
      <rect x="0" y="2" width="162" height="52" rx="12" fill="#03050a"/>
      <rect x="0" y="0" width="162" height="50" rx="12" fill="url(#chipMetalGrad)" stroke="#68a063" stroke-width="1.4"/>
      <rect x="1" y="1" width="160" height="24" rx="11" fill="url(#chipBevelHighlight)"/>
      <circle cx="150" cy="12" r="2.5" class="pulse-led-green"/>
      <rect x="10" y="11" width="28" height="28" rx="7" fill="#0a0f1d" stroke="#68a063" stroke-width="0.8"/>
      <!-- Node.js Hexagon Icon -->
      <g transform="translate(14, 15) scale(0.83)">
        <polygon points="12,1 22,6.8 22,18.2 12,24 2,18.2 2,6.8" fill="#339933"/>
        <path d="M12 4 L19 8 V16 L12 20 L5 16 V8 Z" fill="#68a063"/>
        <text x="12" y="15" font-family="Arial, sans-serif" font-size="8" font-weight="bold" fill="#ffffff" text-anchor="middle">JS</text>
      </g>
      <text x="46" y="27" class="sans-text" font-size="12.5" font-weight="700" fill="#ffffff">Node.js</text>
      <text x="46" y="39" class="mono-text" font-size="8.5" fill="#68a063">RUNTIME</text>
    </g>
  </g>


  <!-- ==================== ROW 3: CYBER / DEV TOOLS (7 CHIPS) WITH 3D METALLIC HARDWARE RAIL ==================== -->
  <g id="category-tools">
    <rect x="14" y="338" width="872" height="174" rx="10" fill="#080b18" fill-opacity="0.8"/>
    <rect x="14" y="338" width="872" height="174" rx="10" fill="none" stroke="#ff00e5" stroke-width="0.8" stroke-opacity="0.25"/>

    <!-- Section Header Strip with Widened Cutout to avoid label collision -->
    <path d="M 14 348 L 22 338 L 330 338 L 340 348 L 340 362 L 14 362 Z" fill="#ff00e5" fill-opacity="0.08"/>
    <rect x="24" y="346" width="4" height="12" rx="2" fill="#ff00e5"/>
    <text x="36" y="356" class="mono-text" font-size="11" font-weight="800" fill="#ff00e5" letter-spacing="1.2">BUS 03 // CYBER / DEV TOOLS</text>
    <text x="260" y="356" class="mono-text" font-size="9" fill="#64748b">[7 DOCKED]</text>
    <text x="815" y="356" class="mono-text" font-size="9" fill="#00ff88">STATUS: ACTIVE</text>
    <circle cx="805" cy="353" r="3" class="pulse-led-green"/>

    <!-- 3D METALLIC HARDWARE RAIL ASSEMBLY (BEHIND AND UNDER TOOLS) -->
    <g id="hardware-rail-mount" transform="translate(20, 372)">
      <!-- Neon Underglow Radiating Beneath Rail -->
      <rect x="6" y="24" width="848" height="34" rx="6" fill="url(#neonGlowRail)" filter="url(#glowPink)" class="rail-shimmer"/>

      <!-- Primary Heavy Steel Structural Rail Bar with Chrome Bevel -->
      <rect x="4" y="28" width="852" height="24" rx="4" fill="url(#railChassisGrad)" filter="url(#dropShadow)"/>
      <rect x="4" y="28" width="852" height="24" rx="4" fill="none" stroke="#6b7c9e" stroke-width="0.75" stroke-opacity="0.6"/>
      <line x1="6" y1="29" x2="854" y2="29" stroke="#ffffff" stroke-width="0.8" stroke-opacity="0.4"/>

      <!-- Recessed Center Cable/Data Channel -->
      <rect x="12" y="36" width="836" height="8" rx="2" fill="url(#railSlotGrad)"/>
      <line x1="14" y1="40" x2="846" y2="40" stroke="#00f5ff" stroke-width="0.75" stroke-dasharray="4 6" opacity="0.4"/>

      <!-- Structural Hexagonal Bolts / Rivets Along Chassis -->
      <g fill="url(#boltGrad)" stroke="#1a202c" stroke-width="0.75">
        <circle cx="18" cy="32" r="3.2"/><line x1="16" y1="32" x2="20" y2="32" stroke="#cbd5e1" stroke-width="0.6"/>
        <circle cx="18" cy="48" r="3.2"/><line x1="16" y1="48" x2="20" y2="48" stroke="#cbd5e1" stroke-width="0.6"/>
        <circle cx="842" cy="32" r="3.2"/><line x1="840" y1="32" x2="844" y2="32" stroke="#cbd5e1" stroke-width="0.6"/>
        <circle cx="842" cy="48" r="3.2"/><line x1="840" y1="48" x2="844" y2="48" stroke="#cbd5e1" stroke-width="0.6"/>

        <circle cx="140" cy="50" r="2.5"/>
        <circle cx="260" cy="50" r="2.5"/>
        <circle cx="380" cy="50" r="2.5"/>
        <circle cx="500" cy="50" r="2.5"/>
        <circle cx="620" cy="50" r="2.5"/>
        <circle cx="740" cy="50" r="2.5"/>
      </g>

      <!-- Precision Heatsink Grill Slits (Lower Fin Rail) -->
      <g stroke="#1b233a" stroke-width="1.8">
        <line x1="30" y1="54" x2="30" y2="60"/><line x1="36" y1="54" x2="36" y2="60"/><line x1="42" y1="54" x2="42" y2="60"/>
        <line x1="48" y1="54" x2="48" y2="60"/><line x1="54" y1="54" x2="54" y2="60"/><line x1="60" y1="54" x2="60" y2="60"/>
        <line x1="160" y1="54" x2="160" y2="60"/><line x1="166" y1="54" x2="166" y2="60"/><line x1="172" y1="54" x2="172" y2="60"/>
        <line x1="178" y1="54" x2="178" y2="60"/><line x1="184" y1="54" x2="184" y2="60"/>
        <line x1="280" y1="54" x2="280" y2="60"/><line x1="286" y1="54" x2="286" y2="60"/><line x1="292" y1="54" x2="292" y2="60"/>
        <line x1="400" y1="54" x2="400" y2="60"/><line x1="406" y1="54" x2="406" y2="60"/><line x1="412" y1="54" x2="412" y2="60"/>
        <line x1="520" y1="54" x2="520" y2="60"/><line x1="526" y1="54" x2="526" y2="60"/><line x1="532" y1="54" x2="532" y2="60"/>
        <line x1="640" y1="54" x2="640" y2="60"/><line x1="646" y1="54" x2="646" y2="60"/><line x1="652" y1="54" x2="652" y2="60"/>
        <line x1="760" y1="54" x2="760" y2="60"/><line x1="766" y1="54" x2="766" y2="60"/><line x1="772" y1="54" x2="772" y2="60"/>
        <line x1="820" y1="54" x2="820" y2="60"/><line x1="826" y1="54" x2="826" y2="60"/><line x1="832" y1="54" x2="832" y2="60"/>
      </g>
    </g>

    <!-- 1. LINUX -->
    <g class="chip-hover" transform="translate(25, 374)" filter="url(#dropShadow)">
      <!-- Locking Bracket Clips onto Hardware Rail -->
      <rect x="50" y="-4" width="16" height="6" rx="2" fill="#334155" stroke="#64748b" stroke-width="0.8"/>
      <rect x="50" y="48" width="16" height="6" rx="2" fill="#334155" stroke="#64748b" stroke-width="0.8"/>
      <!-- Chip Body -->
      <rect x="0" y="2" width="116" height="50" rx="12" fill="#03050a"/>
      <rect x="0" y="0" width="116" height="48" rx="12" fill="url(#chipMetalGrad)" stroke="#fcc624" stroke-width="1.3"/>
      <rect x="1" y="1" width="114" height="23" rx="11" fill="url(#chipBevelHighlight)"/>
      <circle cx="106" cy="11" r="2.2" class="pulse-led-amber"/>
      <rect x="8" y="10" width="28" height="28" rx="7" fill="#0a0f1d" stroke="#fcc624" stroke-width="0.8"/>
      <!-- Linux Tux Penguin Icon -->
      <g transform="translate(13, 14) scale(0.75)">
        <ellipse cx="12" cy="14" rx="8" ry="9" fill="#ffffff"/>
        <path d="M12 2 C8 2 6 5 6 9 C6 11 7 13 5 16 C3 19 4 21 6 21 C7 21 8 20 8 20 C10 22 14 22 16 20 C16 20 17 21 18 21 C20 21 21 19 19 16 C17 13 18 11 18 9 C18 5 16 2 12 2 Z" fill="#18181b"/>
        <ellipse cx="12" cy="14" rx="5" ry="6" fill="#ffffff"/>
        <circle cx="10" cy="7" r="1" fill="#ffffff"/>
        <circle cx="14" cy="7" r="1" fill="#ffffff"/>
        <polygon points="10,9 14,9 12,12" fill="#f59e0b"/>
      </g>
      <text x="42" y="26" class="sans-text" font-size="11.5" font-weight="700" fill="#ffffff">Linux</text>
      <text x="42" y="38" class="mono-text" font-size="8" fill="#fcc624">KERNEL</text>
      <!-- Dedicated Rail Slot Status LED Cluster Underneath -->
      <circle cx="36" cy="68" r="2" class="pulse-led-green"/>
      <circle cx="58" cy="68" r="2" class="pulse-led-cyan"/>
      <circle cx="80" cy="68" r="2" class="pulse-led-amber"/>
    </g>

    <!-- 2. KALI LINUX -->
    <g class="chip-hover" transform="translate(149, 374)" filter="url(#dropShadow)">
      <rect x="50" y="-4" width="16" height="6" rx="2" fill="#334155" stroke="#64748b" stroke-width="0.8"/>
      <rect x="50" y="48" width="16" height="6" rx="2" fill="#334155" stroke="#64748b" stroke-width="0.8"/>
      <rect x="0" y="2" width="116" height="50" rx="12" fill="#03050a"/>
      <rect x="0" y="0" width="116" height="48" rx="12" fill="url(#chipMetalGrad)" stroke="#557c94" stroke-width="1.3"/>
      <rect x="1" y="1" width="114" height="23" rx="11" fill="url(#chipBevelHighlight)"/>
      <circle cx="106" cy="11" r="2.2" class="pulse-led-cyan"/>
      <rect x="8" y="10" width="28" height="28" rx="7" fill="#0a0f1d" stroke="#557c94" stroke-width="0.8"/>
      <!-- Kali Dragon Crest Icon -->
      <g transform="translate(12, 14) scale(0.8)">
        <path d="M12 2 C8 5 4 10 4 15 C4 18 6 20 9 20 C12 20 13 18 15 16 C17 14 18 11 18 8 C16 9 14 9 13 8 C15 6 16 4 12 2 Z" fill="#2680eb"/>
        <circle cx="10" cy="9" r="1.2" fill="#ffffff"/>
      </g>
      <text x="42" y="26" class="sans-text" font-size="11" font-weight="700" fill="#ffffff">Kali Linux</text>
      <text x="42" y="38" class="mono-text" font-size="8" fill="#557c94">SEC / OPS</text>
      <circle cx="36" cy="68" r="2" class="pulse-led-green"/>
      <circle cx="58" cy="68" r="2" class="pulse-led-cyan"/>
      <circle cx="80" cy="68" r="2" class="pulse-led-pink"/>
    </g>

    <!-- 3. GIT -->
    <g class="chip-hover" transform="translate(273, 374)" filter="url(#dropShadow)">
      <rect x="50" y="-4" width="16" height="6" rx="2" fill="#334155" stroke="#64748b" stroke-width="0.8"/>
      <rect x="50" y="48" width="16" height="6" rx="2" fill="#334155" stroke="#64748b" stroke-width="0.8"/>
      <rect x="0" y="2" width="116" height="50" rx="12" fill="#03050a"/>
      <rect x="0" y="0" width="116" height="48" rx="12" fill="url(#chipMetalGrad)" stroke="#f05032" stroke-width="1.3"/>
      <rect x="1" y="1" width="114" height="23" rx="11" fill="url(#chipBevelHighlight)"/>
      <circle cx="106" cy="11" r="2.2" class="pulse-led-amber"/>
      <rect x="8" y="10" width="28" height="28" rx="7" fill="#0a0f1d" stroke="#f05032" stroke-width="0.8"/>
      <!-- Git Branch Logo -->
      <g transform="translate(13, 14) scale(0.8)">
        <rect x="3" y="3" width="16" height="16" rx="2.5" transform="rotate(45 11 11)" fill="#f05032"/>
        <circle cx="8" cy="13" r="1.8" fill="#ffffff"/>
        <circle cx="14" cy="9" r="1.8" fill="#ffffff"/>
        <circle cx="14" cy="15" r="1.8" fill="#ffffff"/>
        <line x1="8" y1="13" x2="14" y2="15" stroke="#ffffff" stroke-width="1.2"/>
        <line x1="14" y1="9" x2="14" y2="15" stroke="#ffffff" stroke-width="1.2"/>
      </g>
      <text x="42" y="26" class="sans-text" font-size="11.5" font-weight="700" fill="#ffffff">Git</text>
      <text x="42" y="38" class="mono-text" font-size="8" fill="#f05032">VCS // CI</text>
      <circle cx="36" cy="68" r="2" class="pulse-led-green"/>
      <circle cx="58" cy="68" r="2" class="pulse-led-cyan"/>
      <circle cx="80" cy="68" r="2" class="pulse-led-amber"/>
    </g>

    <!-- 4. GITHUB -->
    <g class="chip-hover" transform="translate(397, 374)" filter="url(#dropShadow)">
      <rect x="50" y="-4" width="16" height="6" rx="2" fill="#334155" stroke="#64748b" stroke-width="0.8"/>
      <rect x="50" y="48" width="16" height="6" rx="2" fill="#334155" stroke="#64748b" stroke-width="0.8"/>
      <rect x="0" y="2" width="116" height="50" rx="12" fill="#03050a"/>
      <rect x="0" y="0" width="116" height="48" rx="12" fill="url(#chipMetalGrad)" stroke="#c9d1d9" stroke-width="1.3"/>
      <rect x="1" y="1" width="114" height="23" rx="11" fill="url(#chipBevelHighlight)"/>
      <circle cx="106" cy="11" r="2.2" class="pulse-led-green"/>
      <rect x="8" y="10" width="28" height="28" rx="7" fill="#0a0f1d" stroke="#c9d1d9" stroke-width="0.8"/>
      <!-- GitHub Invertocat Icon -->
      <g transform="translate(13, 14) scale(0.8)">
        <path d="M12 2C6.5 2 2 6.6 2 12.2c0 4.5 2.9 8.3 6.9 9.6.5.1.7-.2.7-.5v-1.8c-2.8.6-3.4-1.3-3.4-1.3-.5-1.1-1.1-1.5-1.1-1.5-.9-.6.1-.6.1-.6 1 .1 1.6 1.1 1.6 1.1.9 1.6 2.4 1.1 3 .9.1-.7.4-1.1.7-1.4-2.2-.3-4.6-1.1-4.6-5 0-1.1.4-2 1-2.8-.1-.3-.4-1.3.1-2.8 0 0 .9-.3 2.8 1.1.8-.2 1.7-.4 2.6-.4.9 0 1.8.1 2.6.4 2-1.3 2.8-1.1 2.8-1.1.5 1.5.2 2.5.1 2.8.7.7 1 1.7 1 2.8 0 3.9-2.3 4.8-4.6 5 .4.3.7 1 .7 2v3c0 .3.2.6.7.5 4-1.3 6.9-5.1 6.9-9.6C22 6.6 17.5 2 12 2z" fill="#ffffff"/>
      </g>
      <text x="42" y="26" class="sans-text" font-size="11.5" font-weight="700" fill="#ffffff">GitHub</text>
      <text x="42" y="38" class="mono-text" font-size="8" fill="#cbd5e1">DEVOPS</text>
      <circle cx="36" cy="68" r="2" class="pulse-led-green"/>
      <circle cx="58" cy="68" r="2" class="pulse-led-cyan"/>
      <circle cx="80" cy="68" r="2" class="pulse-led-green"/>
    </g>

    <!-- 5. VS CODE -->
    <g class="chip-hover" transform="translate(521, 374)" filter="url(#dropShadow)">
      <rect x="50" y="-4" width="16" height="6" rx="2" fill="#334155" stroke="#64748b" stroke-width="0.8"/>
      <rect x="50" y="48" width="16" height="6" rx="2" fill="#334155" stroke="#64748b" stroke-width="0.8"/>
      <rect x="0" y="2" width="116" height="50" rx="12" fill="#03050a"/>
      <rect x="0" y="0" width="116" height="48" rx="12" fill="url(#chipMetalGrad)" stroke="#007acc" stroke-width="1.3"/>
      <rect x="1" y="1" width="114" height="23" rx="11" fill="url(#chipBevelHighlight)"/>
      <circle cx="106" cy="11" r="2.2" class="pulse-led-cyan"/>
      <rect x="8" y="10" width="28" height="28" rx="7" fill="#0a0f1d" stroke="#007acc" stroke-width="0.8"/>
      <!-- VS Code Folded Ribbon Icon -->
      <g transform="translate(13, 14) scale(0.8)">
        <path d="M17.5 3.5 L12 8 L7 4 L4 6 L8 12 L4 18 L7 20 L12 16 L17.5 20.5 L20 19 V5 Z" fill="#007acc"/>
        <path d="M17.5 3.5 L12 8 L12 16 L17.5 20.5 Z" fill="#1f9cf0"/>
        <path d="M4 6 L8 12 L4 18 Z" fill="#0066b8"/>
      </g>
      <text x="42" y="26" class="sans-text" font-size="11" font-weight="700" fill="#ffffff">VS Code</text>
      <text x="42" y="38" class="mono-text" font-size="8" fill="#007acc">IDE CORE</text>
      <circle cx="36" cy="68" r="2" class="pulse-led-green"/>
      <circle cx="58" cy="68" r="2" class="pulse-led-cyan"/>
      <circle cx="80" cy="68" r="2" class="pulse-led-cyan"/>
    </g>

    <!-- 6. SUPABASE -->
    <g class="chip-hover" transform="translate(645, 374)" filter="url(#dropShadow)">
      <rect x="50" y="-4" width="16" height="6" rx="2" fill="#334155" stroke="#64748b" stroke-width="0.8"/>
      <rect x="50" y="48" width="16" height="6" rx="2" fill="#334155" stroke="#64748b" stroke-width="0.8"/>
      <rect x="0" y="2" width="116" height="50" rx="12" fill="#03050a"/>
      <rect x="0" y="0" width="116" height="48" rx="12" fill="url(#chipMetalGrad)" stroke="#3ecf8e" stroke-width="1.3"/>
      <rect x="1" y="1" width="114" height="23" rx="11" fill="url(#chipBevelHighlight)"/>
      <circle cx="106" cy="11" r="2.2" class="pulse-led-green"/>
      <rect x="8" y="10" width="28" height="28" rx="7" fill="#0a0f1d" stroke="#3ecf8e" stroke-width="0.8"/>
      <!-- Supabase Lightning Wave Icon -->
      <g transform="translate(13, 14) scale(0.8)">
        <path d="M12.5 2 L3 13.5 H11 L10 22 L20 9.5 H12.5 Z" fill="#3ecf8e"/>
      </g>
      <text x="42" y="26" class="sans-text" font-size="11" font-weight="700" fill="#ffffff">Supabase</text>
      <text x="42" y="38" class="mono-text" font-size="8" fill="#3ecf8e">PG / CLOUD</text>
      <circle cx="36" cy="68" r="2" class="pulse-led-green"/>
      <circle cx="58" cy="68" r="2" class="pulse-led-green"/>
      <circle cx="80" cy="68" r="2" class="pulse-led-cyan"/>
    </g>

    <!-- 7. VERCEL -->
    <g class="chip-hover" transform="translate(769, 374)" filter="url(#dropShadow)">
      <rect x="50" y="-4" width="16" height="6" rx="2" fill="#334155" stroke="#64748b" stroke-width="0.8"/>
      <rect x="50" y="48" width="16" height="6" rx="2" fill="#334155" stroke="#64748b" stroke-width="0.8"/>
      <rect x="0" y="2" width="116" height="50" rx="12" fill="#03050a"/>
      <rect x="0" y="0" width="116" height="48" rx="12" fill="url(#chipMetalGrad)" stroke="#ffffff" stroke-width="1.2"/>
      <rect x="1" y="1" width="114" height="23" rx="11" fill="url(#chipBevelHighlight)"/>
      <circle cx="106" cy="11" r="2.2" class="pulse-led-green"/>
      <rect x="8" y="10" width="28" height="28" rx="7" fill="#0a0f1d" stroke="#ffffff" stroke-width="0.8"/>
      <!-- Vercel Triangle Icon -->
      <g transform="translate(14, 15) scale(0.8)">
        <polygon points="11,3 21,20 1,20" fill="#ffffff"/>
      </g>
      <text x="42" y="26" class="sans-text" font-size="11.5" font-weight="700" fill="#ffffff">Vercel</text>
      <text x="42" y="38" class="mono-text" font-size="8" fill="#cbd5e1">EDGE / DEPLOY</text>
      <circle cx="36" cy="68" r="2" class="pulse-led-green"/>
      <circle cx="58" cy="68" r="2" class="pulse-led-cyan"/>
      <circle cx="80" cy="68" r="2" class="pulse-led-pink"/>
    </g>

    <!-- Diagnostic Legend / LED Key -->
    <g transform="translate(30, 488)" class="mono-text" font-size="8.5" fill="#64748b">
      <text x="0" y="9">RAIL DIAGNOSTICS:</text>
      <circle cx="106" cy="6" r="2" fill="#00ff88"/><text x="113" y="9" fill="#94a3b8">PWR</text>
      <circle cx="145" cy="6" r="2" fill="#00f5ff"/><text x="152" y="9" fill="#94a3b8">LINK</text>
      <circle cx="185" cy="6" r="2" fill="#ff00e5"/><text x="192" y="9" fill="#94a3b8">ACT</text>
      <text x="825" y="9" fill="#ff00e5" text-anchor="end">3D METALLIC CHASSIS // HOT-SWAPPABLE</text>
    </g>
  </g>


  <!-- ==================== PCB FOOTER TELEMETRY ==================== -->
  <g id="footer-bar" transform="translate(14, 524)">
    <line x1="0" y1="0" x2="872" y2="0" stroke="url(#borderGrad)" stroke-width="0.8" opacity="0.4"/>
    
    <!-- Test Points on Left -->
    <g class="mono-text" font-size="8" fill="#475569">
      <circle cx="10" cy="18" r="2.5" fill="#060812" stroke="#00f5ff" stroke-width="1"/>
      <text x="18" y="21">TP_VCC</text>
      
      <circle cx="70" cy="18" r="2.5" fill="#060812" stroke="#7b2ff7" stroke-width="1"/>
      <text x="78" y="21">TP_BUS</text>
    </g>

    <!-- Main System Status Text Center-Aligned -->
    <text x="475" y="21" class="mono-text" font-size="8" fill="#64748b" text-anchor="middle" letter-spacing="0.8">
      ROOTSEC26 HARDWARE ECOSYSTEM // ASSIUT NODE // AUTONOMOUS CYBER STACK // 100% OPERATIONAL
    </text>

    <!-- Signal Frequency Waveform on Right -->
    <g transform="translate(775, 12)" stroke="#00f5ff" stroke-width="1" fill="none" opacity="0.7">
      <path d="M 0 6 L 15 6 L 20 0 L 25 12 L 30 2 L 35 10 L 40 6 L 65 6"/>
      <circle cx="68" cy="6" r="2" class="pulse-led-green"/>
    </g>
  </g>
</svg>
